# xmcd
#
# Track frame offsets: 
#        150
#        15901
#        30679
#        52049
#        70329
#        89421
#        102456
#        124924
#        146620
#        168751
#        190632
#        211284
#        229065
#        249213
#        268351
#        285223
#
# Disc length: 4056 seconds
#
# Revision: 3
# Processed by: cddbd v1.5.2PL0 Copyright (c) Steve Scherf et al.
# Submitted via: ExactAudioCopy v0.99pb5
#
DISCID=dc0fd610
DTITLE=Various Artist - The Blue Album
DYEAR=1900
DGENRE=Blues
TTITLE0=Renée Geyer - Foggy Highway
TTITLE1=Tess McKenna - The Loneliest Day in December
TTITLE2=James Gillard and Kevin Bennett - Mary
TTITLE3=Fiona Kernaghan - When I'm With You
TTITLE4=Michael Fix - When It's Time To Go
TTITLE5=Bernadette Robinson - Moon Over Melbourne
TTITLE6=Broderick Smith - The Tower of Song
TTITLE7=Grace Knight - Stormy Weather
TTITLE8=Paul Grabowsky - Underground
TTITLE9=Suzanne Wyllie - Will You Still Love Me Tomorrow
TTITLE10=Marc Hunter - God Bless the Child
TTITLE11=Gina Jeffreys - Didn't We Shine
TTITLE12=Graeme Connors - Love Works
TTITLE13=Doug de Vries and Andrew Pendlebury - Ashokan Farewell
TTITLE14=The Kanes - The River
TTITLE15=Maria Stratton - Favourite Chair
EXTD=
EXTT0=
EXTT1=
EXTT2=
EXTT3=
EXTT4=
EXTT5=
EXTT6=
EXTT7=
EXTT8=
EXTT9=
EXTT10=
EXTT11=
EXTT12=
EXTT13=
EXTT14=
EXTT15=
PLAYORDER=
